<?xml version="1.0" ?>
<!-- Uploaded to: SVG Repo, www.svgrepo.com, Generator: SVG Repo Mixer Tools -->
<svg fill="#000000" width="800px" height="800px" viewBox="0 0 512 512" version="1.1" xml:space="preserve" xmlns="http://www.w3.org/2000/svg" xmlns:xlink="http://www.w3.org/1999/xlink">
<g id="_x32_0_x2C__Article_x2C__blog_x2C__blogging_x2C__content_x2C__documents">
<g id="XMLID_858_">
<g id="XMLID_871_">
<g id="XMLID_71_">
<path d="M351,293.5H161c-2.761,0-5-2.238-5-5v-245c0-2.761,2.239-5,5-5h190c2.762,0,5,2.239,5,5v245      C356,291.262,353.762,293.5,351,293.5z M166,283.5h180v-235H166V283.5z" id="XMLID_447_"/>
</g>
<g id="XMLID_70_">
<path d="M198.644,150.679c-1.28,0-2.559-0.488-3.536-1.464l-12.644-12.644c-1.953-1.953-1.953-5.119,0-7.071      c1.953-1.952,5.118-1.952,7.071,0l9.108,9.108l25.966-25.966c1.953-1.952,5.118-1.952,7.071,0c1.953,1.953,1.953,5.119,0,7.071      l-29.501,29.501C201.203,150.191,199.923,150.679,198.644,150.679z" id="XMLID_446_"/>
</g>
<g id="XMLID_69_">
<path d="M316,150.467h-64.226c-2.761,0-5-2.239-5-5s2.239-5,5-5H316c2.762,0,5,2.239,5,5      S318.762,150.467,316,150.467z" id="XMLID_445_"/>
</g>
<g id="XMLID_68_">
<path d="M287.535,126.626h-35.761c-2.761,0-5-2.239-5-5s2.239-5,5-5h35.761c2.762,0,5,2.239,5,5      S290.297,126.626,287.535,126.626z" id="XMLID_444_"/>
</g>
<g id="XMLID_67_">
<path d="M198.644,204.109c-1.28,0-2.559-0.488-3.536-1.464l-12.644-12.644c-1.953-1.953-1.953-5.119,0-7.071      c1.953-1.952,5.118-1.952,7.071,0l9.108,9.108l25.966-25.966c1.953-1.952,5.118-1.952,7.071,0c1.953,1.953,1.953,5.119,0,7.071      l-29.501,29.501C201.203,203.621,199.923,204.109,198.644,204.109z" id="XMLID_443_"/>
</g>
<g id="XMLID_66_">
<path d="M316,203.898h-64.226c-2.761,0-5-2.239-5-5s2.239-5,5-5H316c2.762,0,5,2.239,5,5      S318.762,203.898,316,203.898z" id="XMLID_442_"/>
</g>
<g id="XMLID_65_">
<path d="M287.535,180.057h-35.761c-2.761,0-5-2.239-5-5s2.239-5,5-5h35.761c2.762,0,5,2.239,5,5      S290.297,180.057,287.535,180.057z" id="XMLID_441_"/>
</g>
<g id="XMLID_64_">
<path d="M198.644,257.539c-1.28,0-2.559-0.487-3.536-1.464l-12.644-12.644c-1.953-1.953-1.953-5.119,0-7.071      c1.953-1.952,5.118-1.952,7.071,0l9.108,9.108l25.966-25.966c1.953-1.952,5.118-1.952,7.071,0c1.953,1.953,1.953,5.119,0,7.071      l-29.501,29.501C201.203,257.052,199.923,257.539,198.644,257.539z" id="XMLID_440_"/>
</g>
<g id="XMLID_63_">
<path d="M316,257.328h-64.226c-2.761,0-5-2.239-5-5s2.239-5,5-5H316c2.762,0,5,2.239,5,5      S318.762,257.328,316,257.328z" id="XMLID_439_"/>
</g>
<g id="XMLID_62_">
<path d="M287.535,233.487h-35.761c-2.761,0-5-2.239-5-5s2.239-5,5-5h35.761c2.762,0,5,2.239,5,5      S290.297,233.487,287.535,233.487z" id="XMLID_438_"/>
</g>
<g id="XMLID_61_">
<path d="M381,253.5h-30c-2.762,0-5-2.239-5-5s2.238-5,5-5h25v-225H196v25c0,2.761-2.239,5-5,5s-5-2.239-5-5v-30      c0-2.761,2.239-5,5-5h190c2.762,0,5,2.239,5,5v235C386,251.261,383.762,253.5,381,253.5z" id="XMLID_437_"/>
</g>
<g id="XMLID_872_">
<g id="XMLID_873_">
<g id="XMLID_60_">
<path d="M456.333,423.5H55.667C36.551,423.5,21,407.948,21,388.833V358.5c0-2.762,2.239-5,5-5h460        c2.762,0,5,2.238,5,5v30.333C491,407.948,475.448,423.5,456.333,423.5z M31,363.5v25.333        c0,13.602,11.065,24.667,24.667,24.667h400.667c13.602,0,24.667-11.065,24.667-24.667V363.5H31z" id="XMLID_434_"/>
</g>
<g id="XMLID_59_">
<path d="M486,363.5H26c-2.761,0-5-2.238-5-5V135c0-22.883,18.617-41.5,41.5-41.5H161c2.761,0,5,2.239,5,5        s-2.239,5-5,5H62.5C45.131,103.5,31,117.631,31,135v218.5h450V135c0-17.369-14.131-31.5-31.5-31.5H381c-2.762,0-5-2.239-5-5        s2.238-5,5-5h68.5c22.883,0,41.5,18.617,41.5,41.5v223.5C491,361.262,488.762,363.5,486,363.5z" id="XMLID_433_"/>
</g>
</g>
</g>
</g>
<g id="XMLID_58_">
<path d="M311,483.5H201c-2.761,0-5-2.238-5-5v-60c0-2.762,2.239-5,5-5h110c2.762,0,5,2.238,5,5v60     C316,481.262,313.762,483.5,311,483.5z M206,473.5h100v-50H206V473.5z" id="XMLID_430_"/>
</g>
<g id="XMLID_57_">
<path d="M286,483.5h-60c-2.761,0-5-2.238-5-5v-60c0-2.762,2.239-5,5-5h60c2.762,0,5,2.238,5,5v60     C291,481.262,288.762,483.5,286,483.5z M231,473.5h50v-50h-50V473.5z" id="XMLID_427_"/>
</g>
<g id="XMLID_56_">
<path d="M326,503.5H186c-8.271,0-15-6.729-15-15s6.729-15,15-15h140c8.271,0,15,6.729,15,15     S334.271,503.5,326,503.5z M186,483.5c-2.757,0-5,2.243-5,5s2.243,5,5,5h140c2.757,0,5-2.243,5-5s-2.243-5-5-5H186z" id="XMLID_424_"/>
</g>
</g>
</g>
<g id="Layer_1"/>
</svg>